<?xml version="1.0" encoding="utf-8"?>
<svg width="30" height="54" viewBox="0 0 30 54" fill="none" xmlns="http://www.w3.org/2000/svg">
  <g clip-path="url(#clip0_191_1600)">
    <path fill-rule="evenodd" clip-rule="evenodd" d="M17.4119 29.6515L7.67798 13.9991L8.01704 28.1348C3.25016 25.6364 0 20.6572 0 14.9225C0 6.68103 6.71246 0 14.9927 0C23.2729 0 29.9854 6.68103 29.9854 14.9225C29.9854 22.3442 24.5418 28.5002 17.4119 29.6515ZM14.7498 1.53251C6.84155 1.73452 3.59518 7.76703 3.59518 7.76703C3.59518 7.76703 7.81171 3.2627 14.7338 3.39273C23.5005 3.55742 26.3511 7.81607 26.3511 7.81607C26.3511 7.81607 23.5579 1.3075 14.7498 1.53251Z" fill="#F51E55"/>
    <path fill-rule="evenodd" clip-rule="evenodd" d="M15.364 53.9927L1.58203 24.2046L9.20332 32.1018L8.70632 17.2375L17.5849 33.1039L29.0288 24.1962L15.364 53.9927ZM9.7282 22.4712L10.5985 40.5426L14.8426 50.5242L9.7282 22.4712Z" fill="#F51E55"/>
  </g>
  <defs>
    <clipPath id="clip0_191_1600">
      <rect width="30" height="54" fill="white"/>
    </clipPath>
  </defs>
  <text style="fill: rgb(51, 51, 51); font-family: Arial, sans-serif; font-size: 7px; font-weight: 700; white-space: pre;" x="3.509" y="13.164">Guides</text>
</svg>